Coordinates
version=1
nRows=4
nColumns=114
inDegrees=yes

Units are S.I. units (second, meters, Newtons, ...)
If the header above contains a line with 'inDegrees', this indicates whether rotational values are in degrees (yes) or radians (no).

endheader 
time	pelvis_tilt	pelvis_list	pelvis_rotation	pelvis_tx	pelvis_ty	pelvis_tz	hip_flexion_l	hip_adduction_l	hip_rotation_l	hip_flexion_r	hip_adduction_r	hip_rotation_r	knee_angle_l	knee_angle_r	ankle_angle_l	ankle_angle_r	subtalar_angle_l	subtalar_angle_r	mtp_angle_l	mtp_angle_r	lumbar_extension	lumbar_bending	lumbar_rotation	arm_flex_l	arm_add_l	arm_rot_l	arm_flex_r	arm_add_r	arm_rot_r	elbow_flex_l	elbow_flex_r	pro_sup_l	pro_sup_r	addbrev_l/activation	addlong_l/activation	addmagDist_l/activation	addmagIsch_l/activation	addmagMid_l/activation	addmagProx_l/activation	bflh_l/activation	bfsh_l/activation	edl_l/activation	ehl_l/activation	fdl_l/activation	fhl_l/activation	gaslat_l/activation	gasmed_l/activation	glmax1_l/activation	glmax2_l/activation	glmax3_l/activation	glmed1_l/activation	glmed2_l/activation	glmed3_l/activation	glmin1_l/activation	glmin2_l/activation	glmin3_l/activation	grac_l/activation	iliacus_l/activation	perbrev_l/activation	perlong_l/activation	piri_l/activation	psoas_l/activation	recfem_l/activation	sart_l/activation	semimem_l/activation	semiten_l/activation	soleus_l/activation	tfl_l/activation	tibant_l/activation	tibpost_l/activation	vasint_l/activation	vaslat_l/activation	vasmed_l/activation	addbrev_r/activation	addlong_r/activation	addmagDist_r/activation	addmagIsch_r/activation	addmagMid_r/activation	addmagProx_r/activation	bflh_r/activation	bfsh_r/activation	edl_r/activation	ehl_r/activation	fdl_r/activation	fhl_r/activation	gaslat_r/activation	gasmed_r/activation	glmax1_r/activation	glmax2_r/activation	glmax3_r/activation	glmed1_r/activation	glmed2_r/activation	glmed3_r/activation	glmin1_r/activation	glmin2_r/activation	glmin3_r/activation	grac_r/activation	iliacus_r/activation	perbrev_r/activation	perlong_r/activation	piri_r/activation	psoas_r/activation	recfem_r/activation	sart_r/activation	semimem_r/activation	semiten_r/activation	soleus_r/activation	tfl_r/activation	tibant_r/activation	tibpost_r/activation	vasint_r/activation	vaslat_r/activation	vasmed_r/activation	
          1.95000000	         18.35886595	         12.71145004	        -30.12870535	          1.06972810	          0.96493765	          0.36267276	         70.78853352	         -2.30965994	         -4.12570174	         -9.40859674	        -15.33923624	         -8.52075614	        117.43414220	          9.84578657	         -9.66790205	          2.89750975	        -23.80832626	        -18.41419273	          0.07676679	        -17.63409186	        -31.61488361	        -20.11922330	        -14.77564062	          3.14099183	        -22.60016185	         18.14782793	         13.53287117	         -7.53374247	         14.59688450	         27.09895157	         23.97835412	         70.72797025	         72.80791377	          0.01010610	          0.01018548	          0.01014103	          0.01029752	          0.01009857	          0.01022953	          0.29975365	          0.45065344	          0.04765954	          0.02606094	          0.01550110	          0.01293591	          0.05730700	          0.07698055	          0.04115744	          0.07000602	          0.01017125	          0.01014456	          0.01038025	          0.01130908	          0.01032674	          0.01058495	          0.01144213	          0.01038917	          0.04958000	          0.02959691	          0.03883980	          0.32149725	          0.17334795	          0.09202697	          0.99698086	          0.02839626	          0.01052523	          0.01032706	          0.02951981	          0.05227488	          0.01204798	          0.01007874	          0.01002820	          0.01005662	          0.01046903	          0.01034248	          0.01030996	          0.01039475	          0.01027481	          0.01046641	          0.01051916	          0.04523556	          0.02105446	          0.01675495	          0.01601263	          0.01677707	          0.24646985	          0.39388550	          0.19030192	          0.21494686	          0.01033629	          0.45639242	          0.32695745	          0.33231970	          0.16399862	          0.17693646	          0.09892816	          0.01098183	          0.03052598	          0.02789982	          0.02947937	          0.03319039	          0.01275547	          0.08244526	          0.09771363	          0.01135674	          0.01097853	          0.07848967	          0.18423620	          0.01473705	          0.01908075	          0.01056957	          0.01018043	          0.01038982	
          1.96000000	         18.35399539	         12.84444395	        -30.19093599	          1.06984549	          0.96439838	          0.36222972	         70.68927054	         -2.04603409	         -4.23533111	         -9.13976886	        -15.53899272	         -8.61981318	        117.12310948	         10.16736210	         -9.40310887	          3.08036772	        -23.48479698	        -18.47235414	          0.07368161	        -17.84832634	        -31.53349889	        -20.20489448	        -14.87763296	          3.18902206	        -22.70422389	         18.16152922	         13.33694433	         -7.56738531	         14.43703496	         27.13766754	         24.13108333	         70.84018469	         72.91331740	          0.01014314	          0.01026757	          0.01018474	          0.01039367	          0.01013009	          0.01030104	          0.25692544	          0.46767866	          0.04860135	          0.02551834	          0.01567742	          0.01323323	          0.06280153	          0.08808167	          0.04822245	          0.06220489	          0.01021802	          0.01023055	          0.01067181	          0.01249164	          0.01049693	          0.01099940	          0.01343285	          0.01130995	          0.07814404	          0.02791435	          0.03774502	          0.33244879	          0.15098776	          0.07672443	          0.96234743	          0.10653008	          0.01686174	          0.01039340	          0.02900048	          0.04962815	          0.01245952	          0.01007366	          0.01002638	          0.01005297	          0.01047854	          0.01033154	          0.01039381	          0.01059592	          0.01031006	          0.01049015	          0.02093325	          0.10102615	          0.01933821	          0.01687931	          0.01703917	          0.01679381	          0.22102227	          0.35638253	          0.26753571	          0.32996458	          0.01067294	          0.41313104	          0.32537881	          0.32490425	          0.13850515	          0.15219348	          0.08605689	          0.01145556	          0.02557565	          0.02396522	          0.02481208	          0.03246634	          0.01157633	          0.06874258	          0.08536270	          0.04377174	          0.02215325	          0.09882805	          0.17884039	          0.01291272	          0.01624108	          0.01015586	          0.01005124	          0.01010930	
          1.97000000	         18.36970862	         13.02372991	        -30.21961447	          1.07030856	          0.96399026	          0.36183921	         70.49515172	         -1.68785437	         -4.38652142	         -8.96814800	        -15.78650948	         -8.83836506	        116.86333465	         10.37098135	         -8.96579549	          3.22435320	        -23.05011444	        -18.46614601	          0.06133757	        -18.08158855	        -31.37494511	        -20.33857545	        -14.98841127	          3.20620218	        -22.78690163	         18.20804368	         13.05275590	         -7.58285724	         14.09873640	         27.11254606	         24.26097251	         71.00620814	         73.06017110	          0.01016221	          0.01033339	          0.01020601	          0.01045120	          0.01014655	          0.01032495	          0.21430794	          0.43763829	          0.05763437	          0.02728965	          0.01508301	          0.01265015	          0.06050900	          0.08445365	          0.08741881	          0.08479810	          0.01023281	          0.01037389	          0.01128691	          0.02576472	          0.01069267	          0.01171576	          0.03413709	          0.01157938	          0.10801010	          0.03031154	          0.04360818	          0.34563811	          0.13823283	          0.12574247	          0.91220243	          0.08880622	          0.01470290	          0.01025869	          0.03020904	          0.05984654	          0.01191221	          0.01007795	          0.01002796	          0.01005612	          0.01039345	          0.01024679	          0.01052422	          0.01101963	          0.01031712	          0.01049704	          0.01753450	          0.08464173	          0.01693785	          0.01857751	          0.02873919	          0.04550496	          0.21372029	          0.34615687	          0.23488663	          0.27586903	          0.01420270	          0.36803528	          0.34816258	          0.39007355	          0.11676953	          0.15619670	          0.09908877	          0.01116480	          0.02147148	          0.02027050	          0.02078710	          0.03587519	          0.01089605	          0.08553522	          0.07219257	          0.03650665	          0.01861748	          0.10570071	          0.19543581	          0.02221834	          0.05582517	          0.01053947	          0.01017583	          0.01036416	
          1.98000000	         18.42306744	         13.22312483	        -30.20747459	          1.07122546	          0.96381144	          0.36160134	         70.12572226	         -1.22883675	         -4.54780657	         -8.96638423	        -16.05533329	         -9.13510847	        116.66984298	         10.40031397	         -8.42495708	          3.28923889	        -22.58841325	        -18.40359007	          0.05054397	        -18.33238395	        -31.13311031	        -20.51203576	        -15.10850878	          3.15995625	        -22.82307114	         18.26988416	         12.68286456	         -7.58496189	         13.69464004	         26.98755373	         24.28912167	         71.17097650	         73.20718825	          0.01016591	          0.01038046	          0.01021127	          0.01046579	          0.01015264	          0.01033175	          0.17864331	          0.36981966	          0.06718239	          0.02944152	          0.01461857	          0.01225106	          0.05493254	          0.07542094	          0.10074515	          0.09532491	          0.01023404	          0.01042483	          0.01154548	          0.03436212	          0.01073570	          0.01195508	          0.04038035	          0.01099784	          0.11775076	          0.03366952	          0.05194313	          0.35977970	          0.14373437	          0.22772550	          0.87698067	          0.07402500	          0.01248771	          0.01019973	          0.03272251	          0.07824967	          0.01160692	          0.01008600	          0.01003085	          0.01006195	          0.01045910	          0.01030526	          0.01036516	          0.01045475	          0.01029970	          0.01055697	          0.01465111	          0.07146691	          0.01536874	          0.01954329	          0.02841401	          0.04277466	          0.20501942	          0.33490307	          0.19589108	          0.22996287	          0.01199140	          0.33378511	          0.29079895	          0.32532293	          0.10471991	          0.17215594	          0.08496890	          0.01118213	          0.01842163	          0.01725897	          0.01748008	          0.03307180	          0.01168049	          0.26039263	          0.08546411	          0.03044088	          0.01559418	          0.10647789	          0.21290463	          0.02929264	          0.09285093	          0.01051191	          0.01016615	          0.01035212	
